<?xml version="1.0" encoding="UTF-8"?>
<svg id="a" xmlns="http://www.w3.org/2000/svg" xmlns:xlink="http://www.w3.org/1999/xlink"
    viewBox="0 0 212.6 212.6">
    <defs>
        <clipPath id="b">
            <rect width="212.6" height="212.6" style="fill:none; stroke-width:0px;" />
        </clipPath>
    </defs>
    <g style="clip-path:url(#b);">
        <path
            d="M201.54,106.27l-2.84-4.76c-8.61-14.45-19.04-28.33-31.15-41.48l-17.5-17.55c-10.62-9.92-22.12-19.02-34.03-26.99l-9.54-6.44-.2.12-.28-.18-7.22,4.94c-.5.34-.99.69-1.48,1.04l-.65.46c-12.03,8.03-23.51,17.13-34.14,27.05l-17.49,17.55c-12.11,13.15-22.54,27.03-31.15,41.48l-2.82,4.79h.03l-.03.03,2.84,4.77c8.61,14.44,19.04,28.33,31.15,41.47l17.5,17.56c10.62,9.91,22.12,19.02,34.03,26.98l9.54,6.44.2-.12.29.18,7.21-4.94c.5-.34.99-.69,1.49-1.03l.64-.46c12.03-8.04,23.52-17.14,34.14-27.05l17.49-17.56c12.11-13.14,22.54-27.03,31.16-41.47l2.81-4.8h-.02l.02-.03Z"
            style="fill:#253d7f; stroke-width:0px;" />
        <path
            d="M157.81,76.66c.77,3.16,1.49,6.77,2.06,10.64,5.25,6.66,10.21,13.56,14.88,20.65-18.89,25.96-41.53,49.52-68.34,67.22-26.46-18.28-50.1-40.81-68.45-67.22,4.58-7.29,9.58-14.29,14.94-21.02.58-3.78,1.29-7.31,2.05-10.4.01-.04.02-.11.03-.16-9.34,9.75-17.86,20.29-25.37,31.56,18.37,30.82,44.77,56.29,74.22,76.48l2.47,1.69,2.51-1.63c30.1-19.63,55.25-46.29,74.36-76.54-7.71-10.95-16.16-21.47-25.36-31.27"
            style="fill:#fff; stroke-width:0px;" />
        <polygon
            points="106.37 70.86 99.39 85.79 83.03 87.82 95.07 99.07 91.95 115.25 106.37 107.28 120.79 115.25 117.67 99.07 129.71 87.82 113.35 85.79 106.37 70.86"
            style="fill:#fff; stroke-width:0px;" />
        <path
            d="M64.4,72.59c0,2.55-.48,6.1-1.19,10.19-2.73,11.03-8.93,35.67,17.09,57.78,15.89,13.49,24.75,16.61,25.98,17.91,0,0,.03.15.08.09h0c.05.06.08-.09.08-.09,1.23-1.3,10.09-4.42,25.98-17.91,26.02-22.11,19.82-46.75,17.08-57.78-.7-4.09-1.18-7.64-1.18-10.19,0-9.64,7.44-15.99,7.44-15.99l-17.57-15.06c-16.14,10.44-31.65-.81-31.83-.95h0c-.18.14-15.69,11.39-31.83.95l-17.57,15.06s7.44,6.35,7.44,15.99M128.7,133.35c-2.66,2.45-17.07,13.98-22.31,13.98s-19.65-11.53-22.31-13.98c-1.5-1.38-2.86-2.78-4.12-4.19,7.65,3.85,16.7,6.12,26.43,6.12s18.79-2.27,26.44-6.12c-1.27,1.41-2.63,2.81-4.13,4.19M106.37,128.75c-17.88,0-32.37-14.49-32.37-32.36s14.49-32.37,32.37-32.37,32.36,14.49,32.36,32.37-14.49,32.36-32.36,32.36M106.39,51.47c14.37,0,27.43,4.5,37.28,11.81-.74,1.92-1.27,4.11-1.33,6.57-9-7.58-21.77-12.35-35.95-12.35s-26.95,4.77-35.95,12.35c-.06-2.46-.59-4.65-1.33-6.57,9.85-7.31,22.91-11.81,37.28-11.81"
            style="fill:#fff; stroke-width:0px;" />
    </g>
</svg>