<?xml version="1.0" encoding="UTF-8"?>
<svg id="a" xmlns="http://www.w3.org/2000/svg" xmlns:xlink="http://www.w3.org/1999/xlink"
    viewBox="0 0 212.6 213">
    <defs>
        <clipPath id="b">
            <rect width="212.6" height="213" style="fill:none; stroke-width:0px;" />
        </clipPath>
    </defs>
    <g style="clip-path:url(#b);">
        <path
            d="M201.54,106.47l-2.84-4.77c-8.61-14.48-19.04-28.38-31.15-41.56l-17.5-17.58c-10.62-9.94-22.12-19.06-34.03-27.03l-9.54-6.46-.2.12-.28-.18-7.22,4.95c-.5.34-.99.69-1.48,1.04l-.65.45c-12.03,8.06-23.51,17.17-34.14,27.11l-17.49,17.58c-12.11,13.17-22.54,27.08-31.15,41.56l-2.82,4.8h.03l-.03.03,2.84,4.78c8.61,14.47,19.04,28.38,31.15,41.55l17.5,17.59c10.62,9.93,22.12,19.06,34.03,27.03l9.54,6.45.2-.12.29.18,7.21-4.95c.5-.34.99-.69,1.49-1.03l.64-.46c12.03-8.06,23.52-17.17,34.14-27.1l17.49-17.59c12.11-13.16,22.54-27.07,31.16-41.55l2.81-4.81h-.02l.02-.03Z"
            style="fill:#981a2b; stroke-width:0px;" />
        <path
            d="M174.65,108.14c-4.17,5.74-8.51,11.36-13.05,16.83,1.27,3.41,1.76,7,1.56,10.58,7.19-8.73,13.88-17.87,19.91-27.43-20.38-29.01-45.97-55.02-76.8-72.65,27.11,19.76,50.02,44.72,68.38,72.67"
            style="fill:#fff; stroke-width:0px;" />
        <path
            d="M88.03,50.44c5.92-5.19,12-10.19,18.24-14.97-7.18,4.33-14.13,9.04-20.85,14.06.88.28,1.77.54,2.61.91"
            style="fill:#fff; stroke-width:0px;" />
        <path
            d="M137.4,160.03c-3,0-5.9-.56-8.64-1.53-7.14,6.11-14.6,11.8-22.44,16.99-26.46-18.31-50.11-40.89-68.46-67.35,4.99-7.94,10.49-15.54,16.4-22.82-.91-1.92-1.57-3.92-1.98-5.96-8.31,8.98-15.98,18.55-22.77,28.76,18.38,30.88,44.78,56.4,74.22,76.62l2.48,1.69,2.51-1.63c11.35-7.42,22-15.85,31.89-25.09-1.07.13-2.12.31-3.21.31"
            style="fill:#fff; stroke-width:0px;" />
        <path
            d="M151.46,119.99c-1.98-1.97-4.27-3.45-6.71-4.42,4.67-7.66,3.71-17.82-2.9-24.46-4.28-4.29-10.04-6.19-15.65-5.75.45-5.61-1.46-11.38-5.73-15.67-6.62-6.62-16.76-7.58-24.41-2.91-.97-2.44-2.44-4.74-4.41-6.72-7.76-7.76-20.37-7.76-28.12,0-7.76,7.76-7.76,20.41,0,28.17,2.43,2.44,5.35,4.11,8.44,5.02.95,2.44,1.31,5.75-2.51,7.44l-11.64-4.88s-7.27,12.4,19.15,38.87c26.42,26.47,38.8,19.19,38.8,19.19l-4.87-11.66c1.69-3.83,4.99-3.47,7.43-2.51.9,3.1,2.57,6.02,5.01,8.46,7.75,7.76,20.37,7.76,28.12,0,7.75-7.76,7.75-20.41,0-28.17M136.64,96.34c4.88,4.89,4.88,12.84,0,17.73s-12.82,4.89-17.7,0c-4.68-4.69-4.86-12.2-.55-17.12.2-.19.42-.35.61-.55.19-.19.36-.4.55-.6,4.91-4.32,12.4-4.15,17.09.54M115.25,74.92c4.69,4.7,4.86,12.2.55,17.12-.2.19-.41.35-.6.55-.2.19-.36.4-.55.6-4.91,4.33-12.41,4.15-17.09-.54-4.88-4.89-4.88-12.84,0-17.73,4.88-4.89,12.82-4.89,17.69,0M68.74,65.29c4.88-4.89,12.82-4.89,17.69,0,4.88,4.89,4.88,12.84,0,17.73-4.88,4.89-12.82,4.89-17.7,0-4.88-4.89-4.88-12.84,0-17.73M85.55,126.09s-16.94-13.62,2.68-34.27c.97,2.19,2.33,4.26,4.12,6.05,4.27,4.29,10.03,6.19,15.64,5.75-.44,5.61,1.46,11.38,5.74,15.67,1.79,1.79,3.85,3.16,6.03,4.12-20.62,19.67-34.21,2.69-34.21,2.69M128.55,142.95c-4.88-4.89-4.88-12.84,0-17.73,4.88-4.88,12.82-4.88,17.7,0,4.87,4.89,4.87,12.84,0,17.73-4.88,4.89-12.82,4.89-17.7,0"
            style="fill:#fff; stroke-width:0px;" />
    </g>
</svg>