<?xml version="1.0" encoding="UTF-8"?>
<svg id="a" xmlns="http://www.w3.org/2000/svg" xmlns:xlink="http://www.w3.org/1999/xlink"
    viewBox="0 0 212.6 212.6">
    <defs>
        <clipPath id="b">
            <rect width="212.6" height="212.6" style="fill:none; stroke-width:0px;" />
        </clipPath>
    </defs>
    <g style="clip-path:url(#b);">
        <path
            d="M201.54,106.26l-2.84-4.76c-8.61-14.45-19.04-28.33-31.15-41.48l-17.5-17.55c-10.62-9.92-22.12-19.02-34.03-26.98l-9.54-6.45-.2.12-.28-.18-7.22,4.94c-.5.34-.99.69-1.48,1.04l-.65.45c-12.03,8.04-23.51,17.14-34.14,27.06l-17.49,17.55c-12.11,13.15-22.54,27.03-31.15,41.48l-2.82,4.79h.03l-.03.03,2.84,4.77c8.61,14.44,19.04,28.33,31.15,41.47l17.5,17.56c10.62,9.91,22.12,19.02,34.03,26.98l9.54,6.44.2-.12.29.18,7.21-4.94c.5-.34.99-.69,1.49-1.03l.64-.46c12.03-8.04,23.52-17.14,34.14-27.05l17.49-17.56c12.11-13.14,22.54-27.02,31.16-41.47l2.81-4.8h-.02l.02-.03Z"
            style="fill:#7d4e9f; stroke-width:0px;" />
        <path
            d="M106.26,85.12c-16.65,0-32.38,8.07-42.08,21.58l-1.52,2.1,1.52,2.11c9.7,13.5,25.43,21.57,42.08,21.57s32.37-8.07,42.07-21.57l1.52-2.11-1.52-2.1c-9.7-13.51-25.43-21.58-42.07-21.58M95.82,100.51c.78,1.41,2.32,2.38,4.11,2.38,2.58,0,4.67-1.99,4.67-4.44,0-1.94-1.32-3.57-3.15-4.17,1.46-.69,3.08-1.1,4.81-1.1,6.06,0,11,4.69,11,10.46s-4.94,10.45-11,10.45-11-4.69-11-10.45c0-1.1.23-2.13.56-3.13M106.26,125.93c-13.91,0-27.14-6.35-35.91-17.13,5.15-6.33,11.85-11.12,19.31-14-1.55,2.61-2.44,5.63-2.44,8.84,0,9.97,8.55,18.09,19.04,18.09s19.04-8.12,19.04-18.09c0-3.21-.89-6.22-2.44-8.84,7.46,2.89,14.15,7.67,19.31,14-8.78,10.78-22,17.13-35.91,17.13"
            style="fill:#fff; stroke-width:0px;" />
        <path
            d="M60.5,70.78c-3.79,3.68-7.42,7.53-10.95,11.46l-32.71-11.23,29.72,14.54s-.02.02-.03.03l5.42,2.65s.02-.02.02-.04l11.34,5.55s.14-.02.17-.05c11.81-10.35,26.96-16.25,42.78-16.25s30.91,5.88,42.71,16.19c.13.12.23.11.23.11l14.9-7.29,1.85-.9,29.72-14.54-32.71,11.23c-3.55-3.95-7.19-7.81-11-11.51l-3.25,3.31c2.99,3.34,5.84,6.73,8.61,10.14l-11.89,4.08-6-8.71,7.02-7.95,2.94-3.33,25.3-28.65-28.84,25.46c-3.89-3.54-7.87-6.99-11.99-10.28l-1.03,2.83c3.34,3.18,6.69,6.58,10.02,10.1l-7.18,6.34-7.61-11.06,2.85-8.3.6-1.75,11.78-34.32-19.01,38.88-16.07-23.37-1.96-18.41-1.95,18.41-10.95,15.93h-.02s0,.02,0,.03l-5.09,7.41-19.01-38.88,11.78,34.32s-.05.04-.08.06l.66,1.94.07-.11,2.8,8.16-7.61,11.06-7-6.18c3.29-3.43,6.6-6.76,9.88-9.88l-1.15-3.14c-4.09,3.26-8.04,6.69-11.91,10.21l-28.84-25.46,25.3,28.66s-.03.03-.05.05l3.06,3.47s.04-.04.06-.06l6.89,7.8-6,8.72-11.83-4.06c2.77-3.36,5.61-6.71,8.61-9.99l-3.36-3.43ZM101,44.26h10.5l4,5.82h-18.5l4-5.82ZM88.65,62.22h35.21l4,5.82h-43.21l4-5.82Z"
            style="fill:#fff; stroke-width:0px;" />
        <path
            d="M168.88,89.03l-5.23,3.11c.36.49.78.99,1.15,1.48,3.41,4.68,6.63,9.49,9.82,14.32-2.66,3.66-5.42,7.25-8.23,10.8l-5.88-8.55-.72,1.03c-12.34,17.69-32.35,28.25-53.53,28.25s-41.19-10.56-53.54-28.25l-.72-1.03-5.88,8.55c-2.81-3.55-5.56-7.14-8.22-10.8,3.24-4.92,6.81-10.21,10.39-15.09.17-.22.37-.45.54-.67l-5.23-3.11c-5.01,6.03-9.74,12.28-14.1,18.82,0,.01,0,.02-.02.03,9.99,16.76,22.41,31.89,36.35,45.5,11.12,11.1,23.25,21.18,36.36,29.9.51.35,1,.73,1.51,1.08l2.47,1.69.09-.05.08.05,2.47-1.69c.51-.35,1.01-.73,1.51-1.08,13.12-8.72,25.25-18.8,36.36-29.9,13.94-13.61,26.36-28.74,36.36-45.5,0,0-.02-.02-.03-.03-4.36-6.55-9.11-12.82-14.13-18.86M69.29,144.74h73.93c-.42.42-.82.87-1.25,1.29-1.61,1.54-3.27,3.02-4.92,4.53h-61.59c-1.64-1.51-3.31-2.99-4.92-4.53-.43-.42-.83-.87-1.25-1.29M97.06,168.52c-2.52-1.89-4.99-3.85-7.45-5.82h33.29c-2.45,1.97-4.93,3.93-7.45,5.82h-18.39Z"
            style="fill:#fff; stroke-width:0px;" />
    </g>
</svg>