<?xml version="1.0" encoding="UTF-8"?>
<svg id="a" xmlns="http://www.w3.org/2000/svg" xmlns:xlink="http://www.w3.org/1999/xlink"
    viewBox="0 0 212.6 212.6">
    <defs>
        <clipPath id="b">
            <rect width="212.6" height="212.6" style="fill:none; stroke-width:0px;" />
        </clipPath>
    </defs>
    <g style="clip-path:url(#b);">
        <path
            d="M201.55,106.27l-2.84-4.76c-8.61-14.45-19.04-28.33-31.15-41.48l-17.5-17.55c-10.62-9.92-22.12-19.02-34.03-26.99l-9.54-6.44-.2.12-.28-.18-7.22,4.94c-.5.34-.99.69-1.48,1.04l-.65.45c-12.03,8.04-23.51,17.14-34.14,27.06l-17.49,17.55c-12.11,13.15-22.54,27.03-31.15,41.48l-2.82,4.79h.03l-.03.03,2.84,4.77c8.61,14.44,19.04,28.33,31.15,41.47l17.5,17.56c10.62,9.91,22.12,19.02,34.03,26.98l9.54,6.44.2-.12.29.18,7.21-4.94c.5-.34.99-.69,1.49-1.03l.64-.46c12.03-8.04,23.52-17.14,34.14-27.05l17.49-17.56c12.11-13.14,22.54-27.02,31.16-41.47l2.81-4.8h-.02l.02-.03Z"
            style="fill:#1890ba; stroke-width:0px;" />
        <rect x="110.09" y="93.55" width="15.1" height="5.78" style="fill:#fff; stroke-width:0px;" />
        <rect x="87.43" y="93.55" width="15.1" height="5.78" style="fill:#fff; stroke-width:0px;" />
        <path
            d="M183.08,107.92s-.04-.06-.06-.08c-6.78-10.17-14.42-19.7-22.7-28.64-.02.09-.05.17-.07.26-1.08-1.18-2.24-2.27-3.34-3.43v7.92c6.28,7.72,12.28,15.67,17.75,23.98-4.17,5.73-13.02,16.96-12.99,17.04-3.35,4.02-6.86,7.91-10.45,11.72V50.75c-7.39,0-13.38-5.99-13.38-13.38h-6.45c0,2.64-2.14,4.77-4.77,4.77s-4.78-2.13-4.78-4.77h-3.99c0,2.64-2.14,4.77-4.78,4.77s-4.77-2.13-4.77-4.77h-4c0,2.64-2.13,4.77-4.77,4.77s-4.77-2.13-4.77-4.77h-4c0,2.64-2.14,4.77-4.77,4.77s-4.77-2.13-4.77-4.77h-6.46c0,7.39-5.98,13.38-13.37,13.38v85.94c-3.6-3.81-7.1-7.7-10.46-11.72.03-.08-8.82-11.31-12.99-17.04,5.2-7.89,10.89-15.46,16.82-22.83v-8.11c-.78.84-1.63,1.62-2.4,2.47-.02-.09-.06-.17-.07-.26-8.29,8.94-15.93,18.47-22.71,28.64-.02.02-.04.05-.06.08,11.48,19.25,26.09,36.41,42.62,51.51-.05-.01-.1-.01-.15-.02,9.55,8.92,19.84,17.05,30.76,24.27.34.24.66.49.99.72l2.48,1.69.05-.03.03.03.04-.03.05.03,2.47-1.69c.33-.23.66-.48.99-.72,10.93-7.22,21.21-15.35,30.77-24.27-.05.01-.11.01-.16.02,16.53-15.1,31.14-32.26,42.62-51.51ZM144.91,116.51l-1.73,6.38-35.61-9.54v-6.84l37.34,10ZM96.82,61.18s1.52-4.01,9.45-4.05h.09c7.93.04,9.45,4.05,9.45,4.05v5.84c-2.02-1.16-4.93-2.11-9.1-2.17-.12-.01-.73-.01-.85,0-4.14.07-7.03,1.02-9.04,2.17v-5.84ZM96.82,70.61c1.43-1.29,4.11-2.76,9.11-2.85h.74c5.01.08,7.7,1.56,9.14,2.84v14.63h-18.99v-14.62ZM79.52,88.19h53.59v22.28l-26.8-7.25-26.79,7.25v-22.28ZM105.05,106.51v6.84l-35.62,9.54-1.73-6.38,37.35-10ZM66.85,141.67c3.93,0,5.91,2.06,7.66,3.88,1.58,1.65,2.83,2.95,5.47,2.95s3.9-1.3,5.49-2.95c.22-.22.46-.45.68-.67l-15.83-19.79,34.73-9.29v32.54c.39.08.76.16,1.22.16.5,0,.9-.08,1.31-.17v-32.53l34.72,9.29-15.85,19.82c.21.21.44.43.65.64,1.59,1.65,2.85,2.95,5.5,2.95s3.91-1.3,5.5-2.95c1.75-1.82,3.74-3.88,7.67-3.88v.63c-3.47,3.47-7.02,6.87-10.67,10.15-.74.2-1.57.33-2.5.33-3.94,0-5.92-2.07-7.67-3.88-1.59-1.66-2.85-2.96-5.5-2.96s-3.91,1.3-5.5,2.96c-1.74,1.81-3.73,3.88-7.66,3.88s-5.9-2.07-7.65-3.88c-1.59-1.66-2.84-2.96-5.49-2.96s-3.9,1.3-5.48,2.96c-1.76,1.81-3.74,3.88-7.67,3.88-.91,0-1.72-.13-2.44-.32-3.66-3.28-7.21-6.68-10.69-10.16v-.63ZM124.49,161.47c-1.4-1.43-2.66-2.51-5.06-2.51-2.65,0-3.91,1.31-5.5,2.96-1.74,1.82-3.73,3.88-7.66,3.88s-5.9-2.06-7.65-3.88c-1.59-1.65-2.84-2.96-5.49-2.96-2.39,0-3.64,1.07-5.03,2.49-.91-.74-1.82-1.48-2.73-2.23.04-.04.07-.07.1-.1,1.75-1.82,3.73-3.88,7.66-3.88s5.91,2.06,7.66,3.88c1.59,1.65,2.84,2.95,5.48,2.95s3.91-1.3,5.5-2.95c1.75-1.82,3.73-3.88,7.66-3.88s5.92,2.06,7.67,3.88c.04.04.08.08.12.12-.9.75-1.82,1.49-2.73,2.23"
            style="fill:#fff; stroke-width:0px;" />
    </g>
</svg>