<?xml version="1.0" encoding="UTF-8"?>
<svg id="a" xmlns="http://www.w3.org/2000/svg" xmlns:xlink="http://www.w3.org/1999/xlink"
    viewBox="0 0 212.6 212.6">
    <defs>
        <clipPath id="b">
            <rect width="212.6" height="212.6" style="fill:none; stroke-width:0px;" />
        </clipPath>
    </defs>
    <g style="clip-path:url(#b);">
        <path
            d="M201.54,106.27l-2.84-4.76c-8.61-14.45-19.04-28.33-31.15-41.48l-17.5-17.55c-10.62-9.92-22.12-19.02-34.03-26.99l-9.54-6.44-.2.12-.28-.18-7.22,4.94c-.5.34-.99.69-1.48,1.04l-.65.45c-12.03,8.04-23.51,17.14-34.14,27.06l-17.49,17.55c-12.11,13.15-22.54,27.03-31.15,41.48l-2.82,4.79h.03l-.03.03,2.84,4.77c8.61,14.44,19.04,28.33,31.15,41.47l17.5,17.56c10.62,9.91,22.12,19.02,34.03,26.98l9.54,6.44.2-.12.29.18,7.21-4.94c.5-.34.99-.69,1.49-1.03l.64-.46c12.03-8.04,23.52-17.14,34.14-27.05l17.49-17.56c12.11-13.14,22.54-27.02,31.16-41.47l2.81-4.8h-.02l.02-.03Z"
            style="fill:#d12e7c; stroke-width:0px;" />
        <path
            d="M183.08,107.92s-.04-.05-.06-.08c-6.33-9.5-13.48-18.39-21.14-26.81-.65,2.14-1.31,4.29-1.97,6.42,5.2,6.62,10.12,13.46,14.75,20.49-1.01,1.39-2,2.79-3,4.2-16.49,22.65-36.88,42.34-59.56,58.83.24-15.67,4.15-23.25,7.52-26.9,2.16-1.71,4.34-3,5.94-3.79.65-.28,1.26-.56,1.87-.86.28-.11.5-.2.5-.2v-.03c16.81-8.43,18.14-22.44,18.2-26-.04-.01-.07-.02-.1-.02-.52,1.19-3.01,3.31-14,4.65-15.88,1.95-21.7,20.42-21.7,20.42,0,0,15.06-8.71,10.88-3.85-8.33,9.66-13.25,5.33-13.42,39.68-.5.35-.98.72-1.49,1.07-.63-.43-1.24-.89-1.86-1.33,0-2.23-.05-14.05-.03-25.42-2.64-5.73-10.22-13.84-13.79-15.84-4.36-2.43-2.68-2.43-2.68-2.43,9.44,1.25,14.52,8.2,16.48,11.64.01-1.31.01-2.59.02-3.81.04-6.57,1.56-18.93-22.72-18.93-11.7,0-14.59-4.87-14.59-4.87,0,0,.04,22.94,11.47,27.28.02.01.04.02.06.02,2.98,1.83,6.18,2.82,8.85,3.2,5.38,2,9.42,4.13,11.19,8.38.13.31.25.57.35.82.31.95.53,1.97.62,3.14l1.14,14.22c-19.2-13.92-36.76-30.15-51.72-48.51-3.85-4.8-7.55-9.82-11.15-14.76,4.1-6.22,8.46-12.27,13-18.18l-1.13-7.67c-7.3,8.12-14.16,16.64-20.23,25.75-.02.03-.04.05-.06.08,11.48,19.25,26.09,36.42,42.62,51.51-.05,0-.1,0-.15,0,9.55,8.91,19.84,17.05,30.76,24.27.34.23.66.48.99.71l2.48,1.69.08-.05.09.05,2.47-1.69c.33-.23.66-.48.99-.71,10.93-7.22,21.21-15.36,30.77-24.27-.05,0-.11,0-.16,0,16.53-15.09,31.14-32.26,42.62-51.51Z"
            style="fill:#fff; stroke-width:0px;" />
        <path
            d="M73.38,99.12c25.03-3.75,35.92,4.08,35.92,4.08-8.19-9.54-22.03-10.19-22.03-10.19-21.43,1.49-9.89-5.7-9.89-5.7-9.15-3.3-12.97-24.25-12.97-24.25-8.21,9.11-9.55,21.7-9.55,21.7,6.45,10.94,18.52,14.36,18.52,14.36"
            style="fill:#fff; stroke-width:0px;" />
        <path
            d="M77.29,48.11c5.6-2.79,20.17-7.26,25.56-6.06,0,0-12.81-7.21-31.24-2.1,0,0-7.03,16.09-1.28,32.22,0,0,.82-21,6.96-24.06"
            style="fill:#fff; stroke-width:0px;" />
        <path
            d="M126.68,96.15c-15.74,5.25-21.28,16.79-21.28,16.79,31.47,13.03,40.78-18.44,40.78-18.44-5,6.49-18.3,6.9-18.3,6.9,22.48-11.54,28.02-22.19,28.02-22.19.15-14.08-14.23-18.28-14.23-18.28,14.53,9.29.75,29.97-14.99,35.22"
            style="fill:#fff; stroke-width:0px;" />
        <path
            d="M74.68,103.19c3.75,7.64,9.85,9.22,9.85,9.22,12.16,5.8,20.87-7.42,20.87-7.42,0,0-4.83-2.47-12.02-3.09-10.56-.9-18.7,1.29-18.7,1.29"
            style="fill:#fff; stroke-width:0px;" />
        <path
            d="M129.55,38.72c-9.18,0-22.15,2.33-22.15,2.33,19.58,2.88,28.22,16.41,30.72,16.61s-8.57-18.94-8.57-18.94"
            style="fill:#fff; stroke-width:0px;" />
        <path
            d="M83,58.68c5.41,16.6,27.33,17.63,27.33,17.63,10.47-4.36,13.64-15.38,13.64-15.38-3.85,3.44-7.53,5.68-17.58,5.62-10.05-.06-14.82-9.31-14.82-9.31,1.42-6.87,12.34-11.3,12.34-11.3-17.64-5.18-20.91,12.74-20.91,12.74"
            style="fill:#fff; stroke-width:0px;" />
        <path
            d="M99.02,54.56s9.38,12.81,20.18,5.36c0,0,7.62-6.45,6.11-7.62,0,0-3.93-6.09-15.66-3.34,0,0,6.87,2.84,8.79,4.6,1.93,1.75-4.93,6.73-12.14,1.69,0,0,2.73-3,5.96-3.29,0,0-10.9-2.09-13.24,2.6"
            style="fill:#fff; stroke-width:0px;" />
        <path
            d="M97.37,76.64c-8.02-5.04-20.62-9.28-16.25-20.6,0,0-8.51,4.26-8.81,12.8,0,0,5.71,9.04,16.02,12.3,0,0-9.16.43-12.05-2.42,0,0,3.27,11.01,16.33,13.19,10.04,1.67,11.55,3.54,11.71,4.32.1-2.24.36-15-6.95-19.59"
            style="fill:#fff; stroke-width:0px;" />
        <path d="M104.32,96.23c-.01.22-.02.37-.02.37,0,0,.07-.14.02-.37"
            style="fill:#fff; stroke-width:0px;" />
        <path
            d="M107.79,82.52c8.9-.63,23.89-9.04,23.89-9.04-2.89,6.03-16.08,10.17-16.08,10.17-4.41,1.59-9.2,13.15-9.2,13.15,15.43.83,29.08-11.39,29.08-11.39l-12.47,2.26,8.25-4.92c11.5-6.09,12.35-14.8,12.35-14.8-2.89-5.02-12.95-9.54-12.95-9.54,4.46,10.17-22.87,24.11-22.87,24.11"
            style="fill:#fff; stroke-width:0px;" />
    </g>
</svg>