<?xml version="1.0" encoding="UTF-8"?>
<svg id="a" xmlns="http://www.w3.org/2000/svg" xmlns:xlink="http://www.w3.org/1999/xlink"
    viewBox="0 0 212.6 212.6">
    <defs>
        <clipPath id="b">
            <rect width="212.6" height="212.6" style="fill:none; stroke-width:0px;" />
        </clipPath>
    </defs>
    <g style="clip-path:url(#b);">
        <path
            d="M201.55,106.26l-2.84-4.76c-8.61-14.45-19.04-28.33-31.15-41.48l-17.5-17.55c-10.62-9.92-22.12-19.02-34.03-26.98l-9.54-6.45-.2.12-.28-.18-7.22,4.94c-.5.34-.99.69-1.48,1.04l-.65.46c-12.03,8.03-23.51,17.13-34.14,27.05l-17.49,17.55c-12.11,13.15-22.54,27.03-31.15,41.48l-2.82,4.79h.03l-.03.03,2.84,4.77c8.61,14.44,19.04,28.33,31.15,41.47l17.5,17.56c10.62,9.91,22.12,19.02,34.03,26.98l9.54,6.44.2-.12.29.18,7.21-4.94c.5-.34.99-.69,1.49-1.03l.64-.46c12.03-8.04,23.52-17.14,34.14-27.05l17.49-17.56c12.11-13.14,22.54-27.02,31.16-41.47l2.81-4.8h-.02l.02-.03Z"
            style="fill:#f58229; stroke-width:0px;" />
        <path
            d="M45.94,118.85c-2.79-3.56-5.48-7.19-8.06-10.91,17.77-28.27,41.86-52.24,68.41-72.54-30.34,18.26-57.03,42.9-76.76,72.52,2.78,4.66,5.8,9.16,8.93,13.57,2.36-1.16,4.83-2.11,7.48-2.64"
            style="fill:#fff; stroke-width:0px;" />
        <path
            d="M118.07,42.72c-3.84-2.57-7.77-5.02-11.79-7.31,3.82,2.77,7.53,5.67,11.18,8.64.19-.45.4-.89.61-1.33"
            style="fill:#fff; stroke-width:0px;" />
        <path
            d="M168.85,89.35c-1.72,1.06-3.55,1.93-5.47,2.62,3.93,5.21,7.7,10.52,11.29,15.97-6.23,8.56-12.88,16.85-19.94,24.77l-7.99-5.21-13.18,7.85,8.39-13.18.88-25.3-17.99-14.81h-23.9l-16.1,18.42c9.58,13.44,23.29-4.93,23.29-4.93l7.59,4.13-3.86,6.52.13,20.5-6.65-12.25-20.74,20.98,24.73,17.1,12.11.53-3.99,4.26,4.28,6.68c-4.97,3.93-10.1,7.66-15.4,11.16-5.86-4.05-11.6-8.29-17.16-12.75-.65,3.07-1.73,6-3.25,8.69,5.79,4.65,11.73,9.11,17.83,13.3l2.47,1.69,2.51-1.63c30.09-19.63,55.25-46.29,74.36-76.54-4.48-6.37-9.26-12.55-14.24-18.57"
            style="fill:#fff; stroke-width:0px;" />
        <path
            d="M94.42,83.97l-10.25-11.18s-2.66-1.6-5.46,1.06c-2.79,2.67-4.92,5.33-3.46,7.46,1.47,2.13,11.32,10.25,11.32,10.25l7.85-7.59Z"
            style="fill:#fff; stroke-width:0px;" />
        <path
            d="M114.39,77.44l3.87-.98-18.51-15.3s-3.96-1.92-6.75.07c-2.8,2-6.7,5.56-6.17,6.76.54,1.2,9.32,9.45,9.32,9.45,0,0,7.46-4.79,18.24,0"
            style="fill:#fff; stroke-width:0px;" />
        <path
            d="M71.92,87.96l-4.93,4.53s-1.99,3.19-.66,5.72c1.33,2.53,20.43,20.5,20.43,20.5,0,0,6.46.4,8.32-1.2,1.87-1.59,4.93-6.25,4.93-6.25,0,0-4.26-.8-6.79-.8s-12.11-7.72-12.65-8.66c-.53-.93,3.33-5.72,3.33-5.72,0,0-10.85-9.16-11.98-8.12"
            style="fill:#fff; stroke-width:0px;" />
        <path
            d="M82.94,120.97s-18.1-18.63-19.41-17.66c0,0-7.54,6.71-6.21,8.71,1.33,1.99,18.9,20.05,19.3,20.41.4.35,7.6-5.2,7.97-6.4.38-1.2-1.65-5.06-1.65-5.06"
            style="fill:#fff; stroke-width:0px;" />
        <path
            d="M80.68,144.23l-18.01-17.03-1.19,1.05c-8.95-3.09-18.69-1.56-25.13,5.02-6.68,6.81-7.88,17.07-4.12,26.2l17.89-18.28,12.61,3.92,4.2,12.53-17.89,18.28c9.21,3.56,19.43,2.14,26.1-4.68,6.44-6.58,7.76-16.33,4.48-25.21l1.06-1.8Z"
            style="fill:#fff; stroke-width:0px;" />
        <path
            d="M141.02,85.76l1.92-1.5c8.94,3.08,18.67,1.55,25.11-5.02,6.67-6.82,7.88-17.07,4.12-26.2l-17.89,18.28-12.62-3.92-4.19-12.53,17.89-18.28c-9.21-3.57-19.44-2.14-26.11,4.68-6.52,6.66-7.8,16.61-4.35,25.58l-2.71,3.8,18.83,15.11Z"
            style="fill:#fff; stroke-width:0px;" />
    </g>
</svg>