<?xml version="1.0" encoding="UTF-8"?>
<svg id="a" xmlns="http://www.w3.org/2000/svg" xmlns:xlink="http://www.w3.org/1999/xlink"
    viewBox="0 0 212.65 212.65">
    <defs>
        <clipPath id="b">
            <rect width="212.65" height="212.65" style="fill:none; stroke-width:0px;" />
        </clipPath>
    </defs>
    <g style="clip-path:url(#b);">
        <path
            d="M201.58,106.29l-2.84-4.76c-8.61-14.45-19.04-28.34-31.16-41.49l-17.5-17.55c-10.62-9.92-22.12-19.02-34.04-26.99l-9.54-6.45-.2.12-.28-.18-7.22,4.94c-.5.34-.99.69-1.48,1.04l-.65.45c-12.03,8.04-23.52,17.14-34.15,27.07l-17.49,17.55c-12.11,13.15-22.54,27.04-31.16,41.49l-2.82,4.79h.03l-.03.03,2.84,4.77c8.61,14.44,19.04,28.34,31.16,41.48l17.5,17.56c10.62,9.91,22.12,19.02,34.04,26.99l9.54,6.44.2-.12.29.18,7.21-4.94c.5-.34.99-.69,1.49-1.03l.64-.46c12.03-8.04,23.53-17.14,34.15-27.06l17.49-17.56c12.11-13.14,22.54-27.03,31.17-41.48l2.81-4.8h-.02l.02-.03Z"
            style="fill:#007350; stroke-width:0px;" />
        <path
            d="M167.13,87.48h-7.37c5.23,6.63,10.24,13.42,14.89,20.47-18.9,25.98-41.54,49.53-68.35,67.23-26.47-18.27-50.11-40.82-68.47-67.23,4.48-7.12,9.46-13.89,14.68-20.47h-7.42c-5.55,6.54-10.84,13.3-15.6,20.46,18.37,30.82,44.78,56.29,74.24,76.49l2.47,1.7,2.51-1.64c30.1-19.62,55.25-46.3,74.37-76.56-4.96-7.05-10.34-13.84-15.93-20.45"
            style="fill:#fff; stroke-width:0px;" />
        <path
            d="M60.94,80.93s10.11-4.93,15.63-12.16c0,0-2.61,8.68-11.76,13.7,3.78,1.14,10.07,2.17,17.8-.03,0,0,11.24,5.02,17.29,1.45l.68,35.66c-5.23-.66-10.44-1.32-15.55-2.27-2.4-.55-5.11-1.09-7.63-1.88-4.11-1.4-7.16-3.27-8.46-5.94-.24-.55-.44-1.12-.55-1.76-.25-1.88.27-3.93,1.55-5.45.61-.68,1.38-1.25,2.25-1.7.24-.12.48-.24.73-.34.3-.12.61-.23.93-.33,2.37-.69,5.05-.6,7.68-.11.04.01.09.01.13.02.53.1,1.05.23,1.58.36,1.48.39,2.95.88,4.38,1.35.25.04.52.04.82.01.92-.08,2.13-.49,4.03-1.47.3-.9.39-1.63.39-2.27v-.32c-.02-.28-.07-.53-.14-.76,0-.03-.02-.07-.03-.1-.15-.46-.36-.87-.66-1.17-.13-.1-.28-.17-.42-.26-.47-.38-1.05-.72-1.72-1.06-.24-.12-.48-.23-.72-.35-.09-.04-.17-.08-.26-.13-.46-.22-.93-.43-1.41-.62-.24-.1-.49-.19-.74-.28-.71-.26-1.44-.49-2.18-.69-.08-.02-.15-.03-.23-.05-.81-.21-1.63-.38-2.46-.5-.07-.01-.14-.03-.21-.04-2.52-.4-4.97-.3-7.27.17-.13.02-.26.05-.39.08-.32.07-.64.14-.95.22-2.5.65-4.86,1.78-6.9,3.46-3.06,2.54-4.71,5.86-5.05,9.25,0,.02,0,.05,0,.07-.05.48-.06.97-.05,1.45,0,.77.05,1.56.2,2.36.33,2.4,1.39,4.4,2.92,6.09,1.58,1.91,3.74,3.5,6.45,4.53,2.5,1.32,5.98,2.25,9.97,3,.57.11,1.12.22,1.67.32h.02c.49.08.98.17,1.46.24,1.62.37,3.7.66,6.06.94-2.55.85-4.7,1.89-6.34,3.16-.14.1-.3.18-.44.28-6.63,4.61-6.55,14.2.64,18.28.09.05.18.1.26.15,2.01,1.39,4.72,2.51,7.79,3.51.19.06.37.14.56.2,0,0,.02-.01.03-.01,1.54.49,3.17.95,4.83,1.39-.85.35-6.22,3.2-6.32,3.27l15.44,12.61,15.42-12.6c-.11-.07-5.49-2.93-6.35-3.28,1.67-.44,3.29-.9,4.84-1.39.01,0,.02.01.02.01.19-.06.38-.14.56-.2,3.07-1,5.79-2.12,7.8-3.51.08-.05.17-.1.25-.15,7.19-4.08,7.27-13.67.64-18.28-.14-.1-.29-.18-.44-.28-1.64-1.27-3.78-2.31-6.33-3.16,2.35-.28,4.43-.57,6.06-.94.48-.07.97-.16,1.46-.24h0c.55-.1,1.11-.21,1.68-.32,3.98-.75,7.47-1.68,9.97-3,2.71-1.03,4.87-2.62,6.45-4.53,1.53-1.69,2.59-3.69,2.92-6.09.14-.8.19-1.58.2-2.35,0-.49,0-.97-.05-1.46,0-.02,0-.04,0-.07-.35-3.38-1.99-6.7-5.06-9.25-2.03-1.68-4.4-2.81-6.9-3.46-.31-.08-.63-.15-.94-.22-.13-.03-.26-.06-.39-.08-2.3-.47-4.75-.57-7.27-.17-.07.01-.14.03-.21.04-.83.12-1.66.29-2.47.5-.07.02-.15.03-.22.05-.74.2-1.47.43-2.19.69-.24.09-.49.18-.74.28-.47.19-.94.4-1.4.62-.09.05-.17.09-.26.13-.24.12-.49.23-.72.35-.67.34-1.25.68-1.72,1.06-.14.09-.29.16-.43.26-.29.3-.5.71-.65,1.17,0,.03-.02.07-.03.1-.07.23-.12.48-.14.76,0,.1,0,.22,0,.32,0,.64.08,1.37.38,2.27,1.9.98,3.12,1.39,4.03,1.47.31.03.57.03.82-.01,1.44-.47,2.91-.96,4.39-1.35.52-.13,1.04-.26,1.57-.36.05,0,.09,0,.14-.02,2.63-.49,5.31-.58,7.67.11.33.1.64.21.94.33.25.1.49.22.73.34.87.45,1.64,1.02,2.25,1.7,1.27,1.52,1.8,3.57,1.55,5.45-.11.64-.31,1.21-.56,1.76-1.29,2.67-4.34,4.54-8.45,5.94-2.53.79-5.24,1.33-7.64,1.88-5.11.95-10.32,1.61-15.54,2.27l.68-35.66c6.05,3.57,17.29-1.45,17.29-1.45,7.72,2.19,14,1.17,17.78.03-9.15-5.02-11.77-13.7-11.77-13.7,5.53,7.23,15.63,12.16,15.63,12.16h0s.02,0,.02,0c20.9,3.38,24.16-6.87,24.16-6.87-5.29,1.37-22.49-3.38-33.46-15.01-10.96-11.63-14.4-6.51-14.4-6.51-3.63,7.4-8.88,10.2-12.82,11.23v-1.86c3.72-2.67,6.17-6.96,6.17-11.82,0-8.11-6.7-14.68-14.96-14.68s-14.96,6.57-14.96,14.68c0,4.98,2.55,9.37,6.41,12.02v1.72c-3.96-.99-9.33-3.75-13.02-11.29,0,0-3.44-5.12-14.4,6.51-10.96,11.63-28.17,16.38-33.46,15.01,0,0,3.25,10.25,24.15,6.87M98.02,145.42c-6.27-1.91-15.84-4.21-13.64-11.17,1.64-4.29,8.16-6.5,16.34-7.96l.38,19.96c-1.03-.27-2.06-.53-3.08-.83M111.78,126.29c8.18,1.46,14.69,3.67,16.34,7.96,2.2,6.96-7.37,9.26-13.65,11.17-1.01.3-2.05.56-3.07.83l.38-19.96ZM96.51,43.82c3.28-4.72,10.67-5.42,10.67-5.42-9.1,5.79-6.65,21.08-6.65,21.08-6.78-4.69-6.37-12.27-4.02-15.66"
            style="fill:#fff; stroke-width:0px;" />
    </g>
</svg>