<?xml version="1.0" encoding="UTF-8"?>
<svg id="a" xmlns="http://www.w3.org/2000/svg" xmlns:xlink="http://www.w3.org/1999/xlink"
    viewBox="0 0 212.6 212.6">
    <defs>
        <clipPath id="b">
            <rect width="212.6" height="212.6" style="fill:none; stroke-width:0px;" />
        </clipPath>
    </defs>
    <g style="clip-path:url(#b);">
        <path
            d="M201.55,106.27l-2.84-4.76c-8.61-14.45-19.04-28.33-31.15-41.48l-17.5-17.55c-10.62-9.92-22.12-19.02-34.03-26.98l-9.54-6.45-.2.12-.28-.18-7.22,4.94c-.5.34-.99.69-1.48,1.04l-.65.46c-12.03,8.03-23.51,17.14-34.14,27.05l-17.49,17.55c-12.11,13.15-22.54,27.03-31.15,41.48l-2.82,4.79h.03l-.03.04,2.84,4.76c8.61,14.44,19.04,28.33,31.15,41.47l17.5,17.56c10.62,9.91,22.12,19.02,34.03,26.98l9.54,6.44.2-.12.29.18,7.21-4.94c.5-.34.99-.68,1.49-1.03l.64-.46c12.03-8.04,23.52-17.14,34.14-27.05l17.49-17.56c12.11-13.14,22.54-27.02,31.16-41.47l2.81-4.8h-.02l.02-.03Z"
            style="fill:#74432d; stroke-width:0px;" />
        <path
            d="M84.38,87.49s-1.33-3.09,3.48-9.81,1.95-14.87,1.95-14.87c4.09.88,8.59,9.81,8.59,9.81-2.66-17.08,7.69-18.03,7.69-18.03-3.89,14.65,6.96,22.92,6.96,22.92-.1-13,11.05-19.44,11.05-19.44-1.43,2.87.1,10.36,2.66,18.29,2.56,7.93-2.25,14.33-2.25,14.33,9.72-3.09,19.8-21.69,9.97-33.48-9.83-11.79-1.83-19.13-1.83-19.13-10.69-.28-17.65,15.52-17.65,15.52,4.29-28.21-15.54-35.26-15.54-35.26,6.55,23.69-5.91,28.88-5.91,28.88-2.15-11.46-12.52-13.36-12.52-13.36,7.1,13.66-4.84,19.91-6.27,32.25-1.44,12.34,9.62,21.38,9.62,21.38"
            style="fill:#fff; stroke-width:0px;" />
        <path
            d="M143.38,62.67c-.04,1.62-.24,3.26-.66,4.9,11.82,12.48,22.48,26.03,31.93,40.37-9.52,13.09-20,25.56-31.47,36.98v-6.58s-2.71,7.85-36.92,9.58c-34.2-1.73-36.91-9.58-36.91-9.58v6.56c-11.63-11.3-22.24-23.63-31.5-36.95,8.93-14.21,19.44-27.34,31.09-39.44-.7-1.14-1.39-2.4-2.07-3.74-14.11,12.82-26.77,27.24-37.36,43.16,18.37,30.82,44.77,56.29,74.22,76.48l2.47,1.69,2.51-1.63c30.09-19.63,55.24-46.29,74.36-76.54-11.54-16.4-24.81-31.76-39.69-45.26"
            style="fill:#fff; stroke-width:0px;" />
        <path
            d="M72.47,110.56c5.31,5.84,22.09,7.24,30.97,7.57v.1s1.06,0,2.82-.02c1.76.03,2.82.02,2.82.02v-.1c8.88-.33,25.66-1.73,30.97-7.57,0,0,3.12-2.2,3.12-6.2v-19.17s-6.87,10.51-36.26,10.71h-1.3c-29.39-.2-36.26-10.71-36.26-10.71v19.17c0,4,3.12,6.2,3.12,6.2"
            style="fill:#fff; stroke-width:0px;" />
        <path
            d="M72.47,136.63c5.31,5.84,22.09,7.24,30.97,7.57v.1s1.06,0,2.82-.02c1.76.03,2.82.02,2.82.02v-.1c8.88-.33,25.66-1.73,30.97-7.57,0,0,3.12-2.2,3.12-6.2v-18.19s-7.2,8.9-36.91,9.66c-29.71-.76-36.91-9.66-36.91-9.66v18.19c0,4,3.12,6.2,3.12,6.2"
            style="fill:#fff; stroke-width:0px;" />
    </g>
</svg>