<?xml version="1.0" encoding="UTF-8"?>
<svg id="a" xmlns="http://www.w3.org/2000/svg" xmlns:xlink="http://www.w3.org/1999/xlink"
    viewBox="0 0 212.6 212.6">
    <defs>
        <clipPath id="b">
            <rect width="212.6" height="212.6" style="fill:none; stroke-width:0px;" />
        </clipPath>
    </defs>
    <g style="clip-path:url(#b);">
        <path
            d="M201.54,106.27l-2.84-4.76c-8.61-14.45-19.04-28.33-31.15-41.48l-17.5-17.55c-10.62-9.92-22.12-19.02-34.03-26.99l-9.54-6.44-.2.12-.28-.18-7.22,4.94c-.5.34-.99.69-1.48,1.04l-.65.46c-12.03,8.03-23.51,17.13-34.14,27.05l-17.49,17.55c-12.11,13.15-22.54,27.03-31.15,41.48l-2.82,4.79h.03l-.03.03,2.84,4.77c8.61,14.44,19.04,28.33,31.15,41.47l17.5,17.56c10.62,9.91,22.12,19.02,34.03,26.98l9.54,6.44.2-.12.29.18,7.21-4.94c.5-.34.99-.69,1.49-1.03l.64-.46c12.03-8.04,23.52-17.14,34.14-27.05l17.49-17.56c12.11-13.14,22.54-27.03,31.16-41.47l2.81-4.8h-.02l.02-.03Z"
            style="fill:#eea616; stroke-width:0px;" />
        <path
            d="M75.65,102.85v5.67c0,16.91,13.75,30.65,30.65,30.65s30.65-13.74,30.65-30.65v-5.67c1.18-.78,2.01-2.06,2.01-3.58v-7.19c0-1.52-.83-2.8-2.01-3.58v-17.38c0-16.9-13.75-30.65-30.65-30.65s-30.65,13.75-30.65,30.65v17.38c-1.18.78-2,2.06-2,3.58v7.19c0,1.52.82,2.8,2,3.58M102.95,105.49l-3.91,22.67-3.91-22.67-.35-2.05h8.53l-.36,2.05ZM117.46,105.49l-3.91,22.67-3.91-22.67-.35-2.05h8.52l-.35,2.05ZM128.65,59.01c2.1,0,3.79,1.7,3.79,3.8s-1.69,3.79-3.79,3.79-3.8-1.7-3.8-3.79,1.7-3.8,3.8-3.8M128.65,69.3c2.1,0,3.79,1.69,3.79,3.79s-1.69,3.8-3.79,3.8-3.8-1.7-3.8-3.8,1.7-3.79,3.8-3.79M128.65,79.58c2.1,0,3.79,1.7,3.79,3.8s-1.69,3.79-3.79,3.79-3.8-1.7-3.8-3.79,1.7-3.8,3.8-3.8M132.44,103.44l-.49,2.05-3.91,16.18-3.91-16.18-.5-2.05h8.81ZM117.47,48.73c2.1,0,3.8,1.7,3.8,3.79s-1.7,3.8-3.8,3.8-3.79-1.7-3.79-3.8,1.7-3.79,3.79-3.79M117.47,59.01c2.1,0,3.8,1.7,3.8,3.8s-1.7,3.79-3.8,3.79-3.79-1.7-3.79-3.79,1.7-3.8,3.79-3.8M117.47,69.3c2.1,0,3.8,1.69,3.8,3.79s-1.7,3.8-3.8,3.8-3.79-1.7-3.79-3.8,1.7-3.79,3.79-3.79M117.47,79.58c2.1,0,3.8,1.7,3.8,3.8s-1.7,3.79-3.8,3.79-3.79-1.7-3.79-3.79,1.7-3.8,3.79-3.8M106.3,48.73c2.09,0,3.79,1.7,3.79,3.79s-1.7,3.8-3.79,3.8-3.8-1.7-3.8-3.8,1.7-3.79,3.8-3.79M106.3,59.01c2.09,0,3.79,1.7,3.79,3.8s-1.7,3.79-3.79,3.79-3.8-1.7-3.8-3.79,1.7-3.8,3.8-3.8M106.3,69.3c2.09,0,3.79,1.69,3.79,3.79s-1.7,3.8-3.79,3.8-3.8-1.7-3.8-3.8,1.7-3.79,3.8-3.79M106.3,79.58c2.09,0,3.79,1.7,3.79,3.8s-1.7,3.79-3.79,3.79-3.8-1.7-3.8-3.79,1.7-3.8,3.8-3.8M95.12,48.73c2.1,0,3.8,1.7,3.8,3.79s-1.7,3.8-3.8,3.8-3.79-1.7-3.79-3.8,1.69-3.79,3.79-3.79M95.12,59.01c2.1,0,3.8,1.7,3.8,3.8s-1.7,3.79-3.8,3.79-3.79-1.7-3.79-3.79,1.69-3.8,3.79-3.8M95.12,69.3c2.1,0,3.8,1.69,3.8,3.79s-1.7,3.8-3.8,3.8-3.79-1.7-3.79-3.8,1.69-3.79,3.79-3.79M95.12,79.58c2.1,0,3.8,1.7,3.8,3.8s-1.7,3.79-3.8,3.79-3.79-1.7-3.79-3.79,1.69-3.8,3.79-3.8M83.94,59.01c2.1,0,3.8,1.7,3.8,3.8s-1.7,3.79-3.8,3.79-3.79-1.7-3.79-3.79,1.7-3.8,3.79-3.8M83.94,69.3c2.1,0,3.8,1.69,3.8,3.79s-1.7,3.8-3.8,3.8-3.79-1.7-3.79-3.8,1.7-3.79,3.79-3.79M83.94,79.58c2.1,0,3.8,1.7,3.8,3.8s-1.7,3.79-3.8,3.79-3.79-1.7-3.79-3.79,1.7-3.8,3.79-3.8M88.96,103.44l-.5,2.05-3.91,16.18-3.91-16.18-.49-2.05h8.81Z"
            style="fill:#fff; stroke-width:0px;" />
        <path
            d="M183.04,107.87c-1.92-2.72-3.91-5.4-5.93-8.06-6.89-9.41-14.49-18.24-22.69-26.5-.22-.23-.45-.44-.68-.67-2.4-2.4-4.83-4.77-7.33-7.07-.58-.54-1.16-1.1-1.73-1.66v6.06c2.39,2.52,4.8,5.02,7.09,7.62,4.42,5.14,8.62,10.47,12.68,15.91,2.64,3.54,5.16,7.17,7.65,10.82.8,1.22,1.65,2.4,2.43,3.63-2.03,2.91-4.17,5.73-6.32,8.54-15.91,20.48-34.3,39.11-55.37,54.14v-17.09c21.39-3.18,37.87-21.61,37.87-43.87v-5.68c3.2-1.23,5.48-4.3,5.48-7.92s-2.28-6.7-5.48-7.92v-3.99c0-1.66-1.35-3.01-3.01-3.01s-3.02,1.35-3.02,3.01v25.51c0,21.16-17.21,38.38-38.38,38.38s-38.37-17.22-38.37-38.38v-25.51c0-1.66-1.35-3.01-3.01-3.01s-3.02,1.35-3.02,3.01v3.99c-3.2,1.22-5.48,4.29-5.48,7.92s2.28,6.69,5.48,7.92v5.68c0,22.26,16.48,40.7,37.88,43.87v16.9c-1.02-.74-2.06-1.45-3.07-2.2-.27-.21-.53-.42-.8-.63-18.76-14.17-35.82-30.6-50.25-49.12-2.66-3.41-5.24-6.88-7.71-10.44-.03-.03-.06-.07-.08-.1.46-.73.97-1.43,1.44-2.16,7.77-12.03,16.68-23.27,26.43-33.77.73-.8,1.46-1.6,2.19-2.39v-5.76c-.34.31-.7.59-1.04.91h-.01c-3.52,3.2-6.95,6.49-10.27,9.89-.01,0-.02.02-.03.03-3.13,3.2-6.17,6.5-9.12,9.88-.23.26-.47.51-.7.78-2.67,3.09-5.25,6.27-7.75,9.5-.43.55-.89,1.08-1.32,1.64-2.83,3.72-5.56,7.53-8.16,11.43,1.78,2.98,3.68,5.89,5.62,8.76,1.08,1.62,2.17,3.22,3.3,4.81,15.38,21.71,34.74,40.48,56.11,56.31,2.93,2.2,5.9,4.33,8.91,6.4.1.06.18.13.28.2l2.47,1.69,2.51-1.63c1.54-1.01,3.01-2.11,4.53-3.15,5.88-4.05,11.62-8.28,17.09-12.84,6.89-5.73,13.45-11.85,19.67-18.3,8.65-8.96,16.58-18.61,23.86-28.71.02,0,.04.02.07.03.4-.56.78-1.15,1.18-1.72.62-.87,1.21-1.77,1.82-2.66.79-1.16,1.58-2.33,2.35-3.51,1.26-1.9,2.57-3.76,3.78-5.68-.01-.02-.03-.04-.04-.06"
            style="fill:#fff; stroke-width:0px;" />
    </g>
</svg>