<?xml version="1.0" encoding="UTF-8"?>
<svg id="b"
    xmlns="http://www.w3.org/2000/svg"
    viewBox="0 0 184.11 83.54">
    <g id="c">
        <path
            d="M39.36,18.65c0-1.64.02-3.22,0-4.79-.05-3.87-.13-7.73-.17-11.6,0-.47.11-.95.16-1.42.05-.43.3-.61.73-.62,2.4-.04,4.79-.09,7.19-.14.67-.01.9.19.91.98.03,2.55-.23,5.12-.1,7.62.25,4.69-.04,9.37.15,14.06.15,3.74-.05,7.5-.05,11.26,0,.73-.41.73-.92.76-1.8.11-3.61-.36-5.38-.15-1.99.24-3.04-.72-4.07-2.17-3.93-5.53-7.93-11.01-11.91-16.51-.21-.29-.44-.56-.91-.83,0,1.08,0,2.16,0,3.24.02,4.91.03,9.82.07,14.73.01,1.1-.25,1.5-1.52,1.56-2.16.12-4.3.09-6.46-.02-.68-.04-.99-.2-1.01-.95-.04-1.8-.07-3.59-.03-5.39.09-3.79-.02-7.58.05-11.38.1-5.31-.27-10.62.06-15.93.04-.59.24-.74.79-.75,2.47-.05,4.93-.11,7.4-.21.73-.03,1.09.28,1.52.87,2.65,3.7,5.37,7.35,8.08,11.01,1.5,2.02,3.01,4.03,4.52,6.04.18.25.27.59.9.74Z"
            style="fill:#fff; stroke-width:0px;" />
        <path
            d="M117.17,33.36c.02-.75.03-1.5.08-2.25.04-.56-.3-.65-.69-.73-.38.54.74.75.2,1.27-1.47-.89-1.21-2.35-1.28-3.74-.18-3.98-.17-7.98-.12-11.96.07-4.98-.26-9.97.1-14.95.05-.64.25-.76.84-.81,2.56-.24,5.11.09,7.67.02.4-.01.67.13.91.45,1.96,2.66,4.02,5.26,5.91,7.97,2.41,3.45,4.96,6.8,7.71,10.12,0-1.89-.03-3.78,0-5.68.09-4.03.2-8.07,0-12.1-.03-.62.15-.84.8-.83,2.4.03,4.8.03,7.19-.02.84-.02,1.15.29,1.11,1.11-.08,1.75-.22,3.51-.12,5.26.12,2.19-.09,4.37.07,6.56.3,4.11-.36,8.23-.08,12.35.19,2.84-.29,5.67.08,8.49.08.65-.24.85-.84.82-2.39-.14-4.78-.2-7.17.05-.71.07-1-.35-1.31-.82-2.93-4.53-6.36-8.7-9.43-13.13-1.35-1.95-2.63-3.99-4.47-5.97,0,2.09,0,3.94,0,5.78-.02,4.43-.06,8.85-.06,13.28,0,.53-.18.69-.69.7-1.52.02-3.03.05-4.55.12-.78.04-1.44,0-1.48-1.02,0-.14-.27-.26-.42-.39,0,0,.04.04.04.04Z"
            style="fill:#fff; stroke-width:0px;" />
        <path
            d="M62.95,74.83c.61,1.49-.17,2.18-.9,2.95-1.5,1.58-3.22,2.9-5.18,3.78-1.52.69-3.11,1.42-4.85,1.32-2.05-.12-2.63-1.08-1.84-2.82-.42.38-1.59.13-.97,1.42.16.33-.7.83-.78,1.43-.16,1.14-.88.4-1.36.4-1.97-.01-3.89-.27-5.73-1.01-.52-.21-1.04-.39-1.43-.84-.37-.43-.9.06-1.41-.28-3.73-2.47-6.76-5.45-7.85-9.99-.15-.62-.38-1.22-.52-1.84-.18-.75-.4-1.54.72-1.79.25-.06.49-.33.23-.51-1.78-1.23-1.34-2.97-1.07-4.62,1.02-6.13,4.37-10.68,10.06-13.07,4.24-1.79,8.88-2.35,13.39-1.04,5.91,1.72,10.32,5.21,12.18,11.42,1,3.36,1.42,6.69.62,10.13-.4,1.73-1.28,3.26-2.01,4.85-.22.48-.45,1.23-1.31.12ZM58.35,63.43c-.65-.76-.17-2.32-1.66-2.3-.05,0-.12-.2-.16-.31-.8-2.26-2.61-3.42-4.65-4.38-3.35-1.58-6.53-.98-9.35,1.07-3.18,2.3-3.94,5.71-3.62,9.47.32,3.83,3.72,8.09,7.87,8.6,4.09.49,8.36-1.79,9.8-5.42.91-2.3,1.03-4.54.69-6.88.4.05.74.1,1.08.15ZM62.89,73.94c-.55-1.8-.66-3.78-2.09-5.23.25,1.91.75,3.73,2.09,5.23ZM47.19,79.31c-.21.56-1.18.43-.81.95.48.7.42,1.87,1.81,2.06-.32-.97-.62-1.87-1-3.01ZM59.69,65.07c-.4.05-.75.19-.42.74.24.41.54.78.78,1.19.17.28.24.86.67.57.44-.3-.33-.44-.29-.69.07-.49-.25-.9-.23-1.34.02-.41-.12-.49-.51-.47Z"
            style="fill:#fff; stroke-width:0px;" />
        <path
            d="M101.08,21.03c-1.77.08-4.21.17-6.64,0-.62-.04-.77.28-.75.79.06,1.51.13,3.03.2,4.54.03.64.53.49.89.49,2.68.02,5.36-.11,8.03.06,2.09.13,4.15,0,6.22-.06.85-.02,1.21.25,1.17,1.17-.09,1.87-.11,3.75-.09,5.62.01.9-.65.96-1.19,1.02-2.19.27-4.39,0-6.59-.07-.3,0-.46-.09-.35-.42.13-.4-.01-.6-.44-.62-.41-.02-.6.11-.53.56.11.73-.41.61-.85.61-2.48,0-4.95-.05-7.43-.16-2.27-.1-4.53.3-6.81,0-.6-.08-.98-.07-.96-.81.05-1.95-.25-3.91.19-5.85.2-.89-.36-1.67-.33-2.57.16-6.97.31-13.94.07-20.92-.04-1.28.26-2.54.02-3.83-.14-.73.5-.58.9-.57,2.43.1,4.86.31,7.3.13,3.31-.24,6.61.24,9.93-.08,2.13-.21,4.31.08,6.47.11.61,0,.72.31.72.82,0,2.08,0,4.16.03,6.23,0,.56-.23.65-.71.64-3.32-.04-6.63-.12-9.95-.06-1.68.03-3.35.07-5.02.05-.48,0-.73.11-.72.67.02,1.16.01,2.32-.04,3.48-.04.96.28,1.27,1.31,1.25,4.5-.08,9.01-.01,13.51-.07,1-.01,1.34.36,1.3,1.29-.07,1.92-.25,3.83-.08,5.75.05.55-.2.79-.77.78-2.43-.02-4.87,0-7.96,0ZM101.4,29.39c-.86.89-2.27,1.21-2.93,2.72,1.29-.84,2.32-1.55,2.93-2.72ZM89.7,22.83c-.06-.38-.13-.79-.66-.78-.26,0-.48.2-.44.45.07.44.31.85.79.89.3.03.29-.3.3-.56Z"
            style="fill:#fff; stroke-width:0px;" />
        <path
            d="M104,70.88c.33-.08.4-.1.48-.12.67-.17.68-1.53,1.47-1.1.47.26.9.95,1.3,1.49,1.83,2.43,3.64,4.86,5.45,7.29,1.03,1.37,2.07,2.74,3.09,4.09-.11.36-.4.28-.61.28-3.15,0-6.3-.04-9.44-.02-.55,0-.76-.35-1.04-.68-1.47-1.7-2.34-3.81-3.74-5.56-.48-.59.15-1.3-.11-1.96-.7.91-.73.92-1.44-.06-.94-1.29-1.85-2.61-2.73-3.94-.42-.63-.69-.54-1.16-.05-1.25,1.31-1.85,2.77-1.71,4.64.16,2.23.03,4.47.06,6.71,0,.63-.14.93-.86.93-2.47-.02-4.95,0-7.42.04-.61,0-.7-.27-.69-.81.02-3.91.15-7.81-.05-11.72-.1-2.03.38-4.07.15-6.1-.45-3.87.24-7.74-.16-11.61-.13-1.27.31-2.54.14-3.82-.06-.43.21-.55.59-.55.48,0,.97-.08,1.44,0,1.98.35,3.97.09,5.95,0,.74-.03,1.02.13.94.9-.36,3.22-.02,6.46-.21,9.69-.06,1.03.11,2.06.19,3.33,1.76-1.95,3.25-3.82,4.63-5.81,1.68-2.43,3.48-4.78,5.28-7.12.67-.88,3.52-1.1,4.48-.43.27.19.52.2.78.09,1.98-.81,4.05-.61,6.3-.61-1.51,1.79-2.93,3.43-4.3,5.11-2.78,3.4-5.51,6.84-8.3,10.23-.48.59-.6,1.04-.07,1.65.63.72,1.1,1.59,1.78,2.25,1,.97.85,1.81,0,2.71-.13.14-.22.31-.44.64Z"
            style="fill:#fff; stroke-width:0px;" />
        <path
            d="M69.49,28.04c.09.31.09.38.11.39,2.04.5,1.63,2.12,1.36,3.41-.63,3.09-1.41,6.19-3.89,8.43-1.21,1.09-2.51,2.09-4.11,2.6-.73.23-1.05.14-1.03-.76.08-3.11.14-6.22.1-9.34-.08-5.23.43-10.46.09-15.69-.15-2.4-.02-4.79.06-7.18.06-1.8-.04-1.76-1.8-1.94-2.36-.25-4.7.07-7.05.01-.77-.02-1.07-.18-1.03-.99.07-1.4-.08-2.82.14-4.18.08-.52.57-1.04.66-1.7.05-.35,0-.55-.49-.81,1.34-.08,2.43-.1,3.47-.05,2.84.15,5.65-.25,8.5-.09,3.22.18,6.47-.1,9.71-.11,1.79,0,3.58.1,5.37-.02.72-.05,1.08.24,1.05,1.05-.07,1.95-.05,3.91-.08,5.87,0,.77-.33,1.08-1.17,1.03-2.44-.13-4.88-.03-7.31.06-.86.03-.98.33-1.06,1.13-.32,3.47,0,6.93,0,10.39,0,.93-.37,1.34-1.29,1.22.04.16.06.29.08.29,1.3.02,1.23.9,1.28,1.84.07,1.52-.34,3.01-.16,4.54.1.94-.47,1.31-1.52.6Z"
            style="fill:#fff; stroke-width:0px;" />
        <path
            d="M18.73,68.02c0,3.59.01,7.19,0,10.78,0,.9.04,1.92-1.42,1.47-.33-.1-.51.16-.66.4-.09.15-.09.32.05.43.23.18.45.02.68-.04,1.39-.38,1.49-.27,1.4,1.14-.03.56-.27.65-.74.63-2.16-.13-4.31-.02-6.47.13-1.57.11-1.63-.1-1.71-1.71-.19-3.87.04-7.74-.01-11.61-.06-4.15-.03-8.3.05-12.45.02-.91-.13-1.21-1.17-1.16-2.55.13-5.11.06-7.67.1-.64,0-.92-.2-1-.87-.25-2.2.37-4.38.14-6.58-.05-.49.38-.42.69-.41,2.03.04,4.07-.25,6.1.13.35.07.72.03,1.08.01,3.9-.19,7.8-.25,11.7-.04,2.51.14,5.01-.31,7.53-.02.85.1,1.08.27,1.02,1.1-.13,1.87.33,3.74.16,5.63-.08.86-.41,1-1.2.99-2.59-.02-5.19.14-7.78-.06-.69-.05-.77.29-.77.86.02,3.72,0,7.43,0,11.15,0,0-.01,0-.02,0ZM11.47,75.75c1.22.5,2.59-.3,3.01-1.47-1.25-.02-1.41,1.74-3.01,1.47Z"
            style="fill:#fff; stroke-width:0px;" />
        <path
            d="M165.02.1c-.4.55-.94.09-1.17.55.16.37.47.24.71.16,2.45-.8,4.98-.54,7.49-.6,2.35-.06,4.7-.06,7.05-.15.74-.03.97.17.97.91-.02,2.18-.58,4.35-.14,6.55.09.47-.3.37-.56.37-2.67,0-5.35.05-8.02-.01-.89-.02-1.22.19-1.15,1.13.29,3.94.31,7.88.04,11.82-.05.77.15,1.61-.5,2.27-.08.08-.09.41-.04.44,1.38.69.43,1.83.49,2.74.15,2.1.17,4.22.24,6.33,0,.32-.03.64-.02.96.04.78-.34.97-1.08,1.04-2.36.25-4.71,0-7.06.02-.76,0-.84-.42-.89-.97-.15-1.43.06-2.87.13-4.29.13-2.64-.18-5.25-.05-7.89.17-3.5-.03-7.02-.11-10.54-.02-.98.48-2.23-.17-2.86-.59-.59-1.83-.13-2.78-.16-1.91-.06-3.83-.06-5.75,0-.75.02-.96-.21-.94-.94.05-1.92.07-3.84.02-5.75-.02-.88.32-1.02,1.11-1.04,3.22-.1,6.44-.05,9.66.06.78.03,1.57-.08,2.52-.13ZM165.88,3.17c-.05-.3-.23-.6-.53-.49-.32.11-.82.19-.78.71.02.3.22.53.58.44.35-.09.71-.18.74-.65Z"
            style="fill:#fff; stroke-width:0px;" />
        <path
            d="M172.7,82.8c-3.44,0-6.88-.03-10.31.02-.94.01-1.11-.37-1.1-1.19.03-3.59.03-7.18,0-10.77-.03-3.46-.07-6.92-.17-10.38-.02-.84.29-1.44.87-1.95.16-.14.5-.08.41-.43-.06-.23-.28-.29-.48-.28-.55.02-.67-.27-.64-.75.19-2.6-.06-5.19-.13-7.79-.02-.86.28-1.09,1.1-1.06,2.39.09,4.78.12,7.17.13.55,0,.67.22.67.72-.01,4.91-.13,9.83.04,14.74.12,3.48-.11,6.94.01,10.42.03.78.32,1,.99.91,2.83-.36,5.66.08,8.5-.05,1.28-.06,2.56,0,3.83-.03.56-.02.68.23.63.72-.24,2.08-.07,4.16.01,6.23.03.69-.19.89-.87.88-3.03-.07-6.07-.11-9.11-.15-.48,0-.96,0-1.44,0v.08ZM164.61,80.74c.47-.46,1.03-.67,1.54-1.11-.72.17-.57-1.13-1.22-.69-.56.37-.24,1.17-.32,1.8Z"
            style="fill:#fff; stroke-width:0px;" />
        <path
            d="M135.2,51.11c-.54-.98-1.72-1.13-1.37-2.26.12-.41.2-.67.65-.63,2.5.21,5.02-.16,7.52.16.87.11.76.71.76,1.23-.01,2.28.02,4.56-.13,6.83-.15,2.16.25,4.28.16,6.45-.16,3.71.02,7.43,0,11.14,0,.87.3,1.08,1.11,1.08,3.72-.02,7.43.06,11.15,0,1.14-.02,1.64.14,1.56,1.46-.11,1.66.06,3.34.12,5.02.03.81-.24,1.15-1.15,1.22-2.48.21-4.94.12-7.56-.12.43-.16.85-.23.72-.83-2.34,1.28-4.91.98-7.4,1.04-2.03.05-4.07-.18-6.11.04-1.37.15-1.6-.05-1.44-1.44.32-2.8.05-5.59.01-8.38,0-.59-.08-1.19.42-1.69.51-.51-.31-.77-.3-1.26.13-4.38-.37-8.76.11-13.15.18-1.68-.14-3.41-.09-5.12.02-.8.17-1.17,1.28-.8ZM141.08,74.23c.03-.32.12-.7-.27-.69-.38.02-.64.37-.59.76.04.36-.09,1,.41.97.54-.03.23-.74.45-1.04ZM141.13,57.82c.43-.11.48-.41.48-.67,0-.54-.15-1.03-.75-1.18-.16-.04-.33.11-.27.28.16.53.36,1.05.54,1.56ZM135.37,56.8c.3.18.63.14.71-.23.09-.5-.37-.37-.65-.42-.42-.08-.88-.04-.86.49.05,1.24.61-.5.81.16Z"
            style="fill:#fff; stroke-width:0px;" />
        <path
            d="M5.39,34.76c-1.08,0-2.17-.08-3.24.02-1.06.1-1.31-.37-1.27-1.3.06-1.27.16-2.54.15-3.83-.06-5.99-.05-11.98-.05-17.97,0-3.58.03-7.17.01-10.75,0-.62.19-.94.8-.86,2.35.3,4.7-.14,7.05,0,.83.05,1.09.4,1.08,1.17-.05,3.31-.1,6.62-.09,9.93.02,6.39.19,12.77-.04,19.16-.04,1.07.09,2.15.17,3.23.06.9-.24,1.3-1.22,1.23-1.11-.08-2.23-.02-3.35-.02,0,0,0,0,0,0Z"
            style="fill:#fff; stroke-width:0px;" />
        <path
            d="M118.89,59.8c.44-.72.39-1.55.67-2.3.31-.85.16-2.09-.27-2.91-.27-.52-.57-1-.53-1.55.08-1.43.17-2.85.05-4.27-.05-.64.47-.51.85-.51,2.46,0,4.92.03,7.37.02.44,0,.75.1.63.59-.25.97.07,1.91.07,2.86,0,.69.22,1.41-.78,1.73-.59.19.02,1.06-.45,1.37-.92.6.04.94.23,1.16.97,1.08,1.15,2.28,1,3.67-.13,1.26-.14,2.55-.05,3.82.16,2.35,0,4.71-.03,7.05-.04,3.04.49,6.09-.16,9.13-.16.77.12,1.64.21,2.46.06.51-.12.7-.66.69-2.38-.03-4.75-.05-7.13,0-.91.02-1.2-.37-1.21-1.18-.02-1.27.07-2.54.02-3.82-.1-2.47.08-4.94.14-7.41,0-.2-.03-.49.08-.57.77-.56.38-1.06-.02-1.6-.18-.24-.32-.56-.07-.86.47-.21.59.81,1.08.31.46-.46-.14-.72-.26-1.08-.17-.53.12-1.09.27-1.62.08-.28.39-.68-.12-.78-1.05-.19-.88-.65-.51-1.37.13-.25.84-1.11-.4-1.06-.16,0-.1-.43-.07-.66.01-.13,0-.39.24-.29.26.1.55.53.68-.06.11-.49.31-1.25.08-1.47-.53-.49-.56.36-.94.5ZM124.47,51.6c-.06-.24-.17-.45-.44-.5-.22-.03-1.5,1.33-1.48,1.59.02.27.19.43.46.46.19.02,1.47-1.35,1.47-1.55ZM120.25,51.73c-.16-.26.28-.8-.2-.88-.47-.08-.52.46-.57.86-.03.23-.17.44-.22.67-.17.64.07.97.73.74.81-.28.01-.91.26-1.39ZM126.57,52.62c-.35-.44-.63-1.04-1.27-1.08-.32-.02-.29.44-.25.67.09.54.39.96.99.96.27,0,.51-.19.53-.55ZM121.07,71.06c-.14-.44.21-1.2-.57-1.2-.49,0-.35.66-.37.99-.03.42.02,1.08.6,1.1.41.01.36-.53.35-.89ZM123.73,50.08c.22-.02.58.16.5-.36-.07-.43-.4-.97-.68-.8-.39.23-1.19.35-1.15.64.09.68.87.28,1.34.52Z"
            style="fill:#fff; stroke-width:0px;" />
        <path
            d="M117.14,33.33c-.05.45.56,1.03-.17,1.35-.52.23-1.09.03-1.36-.44-.32-.55-.39-1.2-.04-1.8.06-.11.26-.18.4-.19.25-.02.35.15.3.39-.17.83.53.57.9.73,0,0-.04-.04-.04-.04Z"
            style="fill:#fff; stroke-width:0px;" />
    </g>
</svg>